<mxfile host="app.diagrams.net" modified="2023-02-06T11:59:03.150Z" agent="5.0 (Windows)" etag="gw4IiUCwcceq5kDtkmWY" version="20.8.15" type="github">
  <diagram name="Seite-1" id="erfkVAOtmLiHtdP4GGAy">
    <mxGraphModel dx="989" dy="539" grid="1" gridSize="10" guides="1" tooltips="1" connect="1" arrows="1" fold="1" page="1" pageScale="1" pageWidth="827" pageHeight="1169" math="0" shadow="0">
      <root>
        <mxCell id="0" />
        <mxCell id="1" parent="0" />
        <mxCell id="B5Kr1qF4tS2fgAwjhoCs-3" style="edgeStyle=orthogonalEdgeStyle;rounded=0;orthogonalLoop=1;jettySize=auto;html=1;exitX=1;exitY=0.5;exitDx=0;exitDy=0;entryX=0;entryY=0.5;entryDx=0;entryDy=0;" edge="1" parent="1" source="B5Kr1qF4tS2fgAwjhoCs-1" target="B5Kr1qF4tS2fgAwjhoCs-2">
          <mxGeometry relative="1" as="geometry" />
        </mxCell>
        <mxCell id="B5Kr1qF4tS2fgAwjhoCs-1" value="" style="ellipse;fillColor=strokeColor;" vertex="1" parent="1">
          <mxGeometry x="40" y="40" width="30" height="30" as="geometry" />
        </mxCell>
        <mxCell id="B5Kr1qF4tS2fgAwjhoCs-5" style="edgeStyle=orthogonalEdgeStyle;rounded=0;orthogonalLoop=1;jettySize=auto;html=1;exitX=1;exitY=0.5;exitDx=0;exitDy=0;entryX=0;entryY=0.5;entryDx=0;entryDy=0;" edge="1" parent="1" source="B5Kr1qF4tS2fgAwjhoCs-2" target="B5Kr1qF4tS2fgAwjhoCs-4">
          <mxGeometry relative="1" as="geometry" />
        </mxCell>
        <mxCell id="B5Kr1qF4tS2fgAwjhoCs-2" value="Kundenanfrage geht ein" style="html=1;align=center;verticalAlign=top;rounded=1;absoluteArcSize=1;arcSize=10;dashed=0;" vertex="1" parent="1">
          <mxGeometry x="100" y="35" width="140" height="40" as="geometry" />
        </mxCell>
        <mxCell id="B5Kr1qF4tS2fgAwjhoCs-7" style="edgeStyle=orthogonalEdgeStyle;rounded=0;orthogonalLoop=1;jettySize=auto;html=1;exitX=1;exitY=0.5;exitDx=0;exitDy=0;" edge="1" parent="1" source="B5Kr1qF4tS2fgAwjhoCs-4" target="B5Kr1qF4tS2fgAwjhoCs-6">
          <mxGeometry relative="1" as="geometry" />
        </mxCell>
        <mxCell id="B5Kr1qF4tS2fgAwjhoCs-4" value="Erstellen eines Angebots" style="html=1;align=center;verticalAlign=top;rounded=1;absoluteArcSize=1;arcSize=10;dashed=0;" vertex="1" parent="1">
          <mxGeometry x="274" y="35" width="140" height="40" as="geometry" />
        </mxCell>
        <mxCell id="B5Kr1qF4tS2fgAwjhoCs-9" style="edgeStyle=orthogonalEdgeStyle;rounded=0;orthogonalLoop=1;jettySize=auto;html=1;exitX=1;exitY=0.5;exitDx=0;exitDy=0;entryX=0;entryY=0.5;entryDx=0;entryDy=0;" edge="1" parent="1" source="B5Kr1qF4tS2fgAwjhoCs-6" target="B5Kr1qF4tS2fgAwjhoCs-8">
          <mxGeometry relative="1" as="geometry" />
        </mxCell>
        <mxCell id="B5Kr1qF4tS2fgAwjhoCs-6" value="&lt;div&gt;Angebot an den&lt;/div&gt;&lt;div&gt;Kunden schicken&lt;/div&gt;" style="html=1;align=center;verticalAlign=top;rounded=1;absoluteArcSize=1;arcSize=10;dashed=0;" vertex="1" parent="1">
          <mxGeometry x="450" y="35" width="140" height="40" as="geometry" />
        </mxCell>
        <mxCell id="B5Kr1qF4tS2fgAwjhoCs-13" style="edgeStyle=orthogonalEdgeStyle;rounded=0;orthogonalLoop=1;jettySize=auto;html=1;exitX=1;exitY=0.5;exitDx=0;exitDy=0;entryX=1;entryY=0.5;entryDx=0;entryDy=0;" edge="1" parent="1" source="B5Kr1qF4tS2fgAwjhoCs-8" target="B5Kr1qF4tS2fgAwjhoCs-10">
          <mxGeometry relative="1" as="geometry" />
        </mxCell>
        <mxCell id="B5Kr1qF4tS2fgAwjhoCs-8" value="&lt;div&gt;Kunde nimmt&lt;/div&gt;&lt;div&gt;Angebot an&lt;/div&gt;" style="html=1;align=center;verticalAlign=top;rounded=1;absoluteArcSize=1;arcSize=10;dashed=0;" vertex="1" parent="1">
          <mxGeometry x="630" y="35" width="140" height="40" as="geometry" />
        </mxCell>
        <mxCell id="B5Kr1qF4tS2fgAwjhoCs-12" style="edgeStyle=orthogonalEdgeStyle;rounded=0;orthogonalLoop=1;jettySize=auto;html=1;exitX=0;exitY=0.5;exitDx=0;exitDy=0;entryX=1;entryY=0.5;entryDx=0;entryDy=0;" edge="1" parent="1" source="B5Kr1qF4tS2fgAwjhoCs-10" target="B5Kr1qF4tS2fgAwjhoCs-11">
          <mxGeometry relative="1" as="geometry" />
        </mxCell>
        <mxCell id="B5Kr1qF4tS2fgAwjhoCs-10" value="&lt;div&gt;Bonitätsprüfung Kunde&lt;/div&gt;" style="html=1;align=center;verticalAlign=top;rounded=1;absoluteArcSize=1;arcSize=10;dashed=0;" vertex="1" parent="1">
          <mxGeometry x="630" y="120" width="140" height="40" as="geometry" />
        </mxCell>
        <mxCell id="B5Kr1qF4tS2fgAwjhoCs-16" style="edgeStyle=orthogonalEdgeStyle;rounded=0;orthogonalLoop=1;jettySize=auto;html=1;exitX=0;exitY=0.5;exitDx=0;exitDy=0;entryX=1;entryY=0.5;entryDx=0;entryDy=0;" edge="1" parent="1" source="B5Kr1qF4tS2fgAwjhoCs-11" target="B5Kr1qF4tS2fgAwjhoCs-14">
          <mxGeometry relative="1" as="geometry" />
        </mxCell>
        <mxCell id="B5Kr1qF4tS2fgAwjhoCs-53" style="edgeStyle=orthogonalEdgeStyle;rounded=0;orthogonalLoop=1;jettySize=auto;html=1;exitX=0.5;exitY=1;exitDx=0;exitDy=0;entryX=0.5;entryY=0;entryDx=0;entryDy=0;" edge="1" parent="1" source="B5Kr1qF4tS2fgAwjhoCs-11" target="B5Kr1qF4tS2fgAwjhoCs-52">
          <mxGeometry relative="1" as="geometry" />
        </mxCell>
        <mxCell id="B5Kr1qF4tS2fgAwjhoCs-11" value="" style="rhombus;" vertex="1" parent="1">
          <mxGeometry x="505" y="125" width="30" height="30" as="geometry" />
        </mxCell>
        <mxCell id="B5Kr1qF4tS2fgAwjhoCs-24" style="edgeStyle=orthogonalEdgeStyle;rounded=0;orthogonalLoop=1;jettySize=auto;html=1;exitX=0;exitY=0.5;exitDx=0;exitDy=0;entryX=1;entryY=0.5;entryDx=0;entryDy=0;" edge="1" parent="1" source="B5Kr1qF4tS2fgAwjhoCs-14" target="B5Kr1qF4tS2fgAwjhoCs-23">
          <mxGeometry relative="1" as="geometry" />
        </mxCell>
        <mxCell id="B5Kr1qF4tS2fgAwjhoCs-14" value="&lt;div&gt;neues Angebot auf&lt;/div&gt;&lt;div&gt;Vorkasse&lt;br&gt;&lt;/div&gt;" style="html=1;align=center;verticalAlign=top;rounded=1;absoluteArcSize=1;arcSize=10;dashed=0;" vertex="1" parent="1">
          <mxGeometry x="274" y="120" width="140" height="40" as="geometry" />
        </mxCell>
        <mxCell id="B5Kr1qF4tS2fgAwjhoCs-17" value="&lt;div&gt;keine&lt;/div&gt;&lt;div&gt;Bonität&lt;br&gt;&lt;/div&gt;" style="text;html=1;align=center;verticalAlign=middle;resizable=0;points=[];autosize=1;strokeColor=none;fillColor=none;" vertex="1" parent="1">
          <mxGeometry x="460" y="100" width="60" height="40" as="geometry" />
        </mxCell>
        <mxCell id="B5Kr1qF4tS2fgAwjhoCs-27" style="edgeStyle=orthogonalEdgeStyle;rounded=0;orthogonalLoop=1;jettySize=auto;html=1;exitX=0;exitY=0.5;exitDx=0;exitDy=0;entryX=1;entryY=0.5;entryDx=0;entryDy=0;" edge="1" parent="1" source="B5Kr1qF4tS2fgAwjhoCs-23" target="B5Kr1qF4tS2fgAwjhoCs-25">
          <mxGeometry relative="1" as="geometry" />
        </mxCell>
        <mxCell id="B5Kr1qF4tS2fgAwjhoCs-23" value="&lt;div&gt;Nimmt Kunde&lt;/div&gt;&lt;div&gt;neues Angebot an&lt;br&gt;&lt;/div&gt;" style="html=1;align=center;verticalAlign=top;rounded=1;absoluteArcSize=1;arcSize=10;dashed=0;" vertex="1" parent="1">
          <mxGeometry x="100" y="120" width="140" height="40" as="geometry" />
        </mxCell>
        <mxCell id="B5Kr1qF4tS2fgAwjhoCs-29" style="edgeStyle=orthogonalEdgeStyle;rounded=0;orthogonalLoop=1;jettySize=auto;html=1;exitX=0.5;exitY=0;exitDx=0;exitDy=0;entryX=0.5;entryY=1;entryDx=0;entryDy=0;" edge="1" parent="1" source="B5Kr1qF4tS2fgAwjhoCs-25" target="B5Kr1qF4tS2fgAwjhoCs-28">
          <mxGeometry relative="1" as="geometry" />
        </mxCell>
        <mxCell id="B5Kr1qF4tS2fgAwjhoCs-32" style="edgeStyle=orthogonalEdgeStyle;rounded=0;orthogonalLoop=1;jettySize=auto;html=1;exitX=0.5;exitY=1;exitDx=0;exitDy=0;entryX=0;entryY=0.5;entryDx=0;entryDy=0;" edge="1" parent="1" source="B5Kr1qF4tS2fgAwjhoCs-25" target="B5Kr1qF4tS2fgAwjhoCs-31">
          <mxGeometry relative="1" as="geometry" />
        </mxCell>
        <mxCell id="B5Kr1qF4tS2fgAwjhoCs-25" value="" style="rhombus;" vertex="1" parent="1">
          <mxGeometry x="40" y="125" width="30" height="30" as="geometry" />
        </mxCell>
        <mxCell id="B5Kr1qF4tS2fgAwjhoCs-28" value="" style="shape=sumEllipse;perimeter=ellipsePerimeter;whiteSpace=wrap;html=1;backgroundOutline=1;" vertex="1" parent="1">
          <mxGeometry x="40" y="80" width="30" height="30" as="geometry" />
        </mxCell>
        <mxCell id="B5Kr1qF4tS2fgAwjhoCs-30" value="Nein" style="text;html=1;align=center;verticalAlign=middle;resizable=0;points=[];autosize=1;strokeColor=none;fillColor=none;" vertex="1" parent="1">
          <mxGeometry x="50" y="105" width="50" height="30" as="geometry" />
        </mxCell>
        <mxCell id="B5Kr1qF4tS2fgAwjhoCs-36" style="edgeStyle=orthogonalEdgeStyle;rounded=0;orthogonalLoop=1;jettySize=auto;html=1;exitX=1;exitY=0.5;exitDx=0;exitDy=0;entryX=0;entryY=0.5;entryDx=0;entryDy=0;" edge="1" parent="1" source="B5Kr1qF4tS2fgAwjhoCs-31" target="B5Kr1qF4tS2fgAwjhoCs-35">
          <mxGeometry relative="1" as="geometry" />
        </mxCell>
        <mxCell id="B5Kr1qF4tS2fgAwjhoCs-31" value="&lt;div&gt;Kunde&lt;/div&gt;&lt;div&gt;bezahlt&lt;br&gt;&lt;/div&gt;" style="html=1;align=center;verticalAlign=top;rounded=1;absoluteArcSize=1;arcSize=10;dashed=0;" vertex="1" parent="1">
          <mxGeometry x="100" y="210" width="140" height="40" as="geometry" />
        </mxCell>
        <mxCell id="B5Kr1qF4tS2fgAwjhoCs-33" value="Ja" style="text;html=1;align=center;verticalAlign=middle;resizable=0;points=[];autosize=1;strokeColor=none;fillColor=none;" vertex="1" parent="1">
          <mxGeometry x="50" y="150" width="40" height="30" as="geometry" />
        </mxCell>
        <mxCell id="B5Kr1qF4tS2fgAwjhoCs-37" style="edgeStyle=orthogonalEdgeStyle;rounded=0;orthogonalLoop=1;jettySize=auto;html=1;exitX=0.5;exitY=0;exitDx=0;exitDy=0;entryX=0.5;entryY=0;entryDx=0;entryDy=0;" edge="1" parent="1" source="B5Kr1qF4tS2fgAwjhoCs-35" target="B5Kr1qF4tS2fgAwjhoCs-31">
          <mxGeometry relative="1" as="geometry" />
        </mxCell>
        <mxCell id="B5Kr1qF4tS2fgAwjhoCs-74" style="edgeStyle=orthogonalEdgeStyle;rounded=0;orthogonalLoop=1;jettySize=auto;html=1;exitX=0.5;exitY=1;exitDx=0;exitDy=0;entryX=0.5;entryY=0;entryDx=0;entryDy=0;startArrow=none;startFill=0;endArrow=classic;endFill=1;" edge="1" parent="1" source="B5Kr1qF4tS2fgAwjhoCs-35" target="B5Kr1qF4tS2fgAwjhoCs-73">
          <mxGeometry relative="1" as="geometry">
            <Array as="points">
              <mxPoint x="344" y="310" />
              <mxPoint x="145" y="310" />
            </Array>
          </mxGeometry>
        </mxCell>
        <mxCell id="B5Kr1qF4tS2fgAwjhoCs-35" value="" style="rhombus;" vertex="1" parent="1">
          <mxGeometry x="329" y="215" width="30" height="30" as="geometry" />
        </mxCell>
        <mxCell id="B5Kr1qF4tS2fgAwjhoCs-38" value="Nein" style="text;html=1;align=center;verticalAlign=middle;resizable=0;points=[];autosize=1;strokeColor=none;fillColor=none;" vertex="1" parent="1">
          <mxGeometry x="300" y="185" width="50" height="30" as="geometry" />
        </mxCell>
        <mxCell id="B5Kr1qF4tS2fgAwjhoCs-39" value="" style="html=1;points=[];perimeter=orthogonalPerimeter;fillColor=strokeColor;" vertex="1" parent="1">
          <mxGeometry x="100" y="340" width="5" height="100" as="geometry" />
        </mxCell>
        <mxCell id="B5Kr1qF4tS2fgAwjhoCs-43" style="edgeStyle=orthogonalEdgeStyle;rounded=0;orthogonalLoop=1;jettySize=auto;html=1;exitX=1;exitY=0.5;exitDx=0;exitDy=0;" edge="1" parent="1" source="B5Kr1qF4tS2fgAwjhoCs-40" target="B5Kr1qF4tS2fgAwjhoCs-41">
          <mxGeometry relative="1" as="geometry" />
        </mxCell>
        <mxCell id="B5Kr1qF4tS2fgAwjhoCs-40" value="Verladung" style="html=1;align=center;verticalAlign=top;rounded=1;absoluteArcSize=1;arcSize=10;dashed=0;" vertex="1" parent="1">
          <mxGeometry x="180" y="330" width="140" height="40" as="geometry" />
        </mxCell>
        <mxCell id="B5Kr1qF4tS2fgAwjhoCs-49" style="edgeStyle=orthogonalEdgeStyle;rounded=0;orthogonalLoop=1;jettySize=auto;html=1;exitX=1;exitY=0.5;exitDx=0;exitDy=0;" edge="1" parent="1" source="B5Kr1qF4tS2fgAwjhoCs-41" target="B5Kr1qF4tS2fgAwjhoCs-48">
          <mxGeometry relative="1" as="geometry" />
        </mxCell>
        <mxCell id="B5Kr1qF4tS2fgAwjhoCs-41" value="Transport" style="html=1;align=center;verticalAlign=top;rounded=1;absoluteArcSize=1;arcSize=10;dashed=0;" vertex="1" parent="1">
          <mxGeometry x="380" y="330" width="140" height="40" as="geometry" />
        </mxCell>
        <mxCell id="B5Kr1qF4tS2fgAwjhoCs-68" style="edgeStyle=orthogonalEdgeStyle;rounded=0;orthogonalLoop=1;jettySize=auto;html=1;exitX=1;exitY=0.5;exitDx=0;exitDy=0;entryX=0;entryY=0.5;entryDx=0;entryDy=0;startArrow=none;startFill=0;endArrow=classic;endFill=1;" edge="1" parent="1" source="B5Kr1qF4tS2fgAwjhoCs-48" target="B5Kr1qF4tS2fgAwjhoCs-67">
          <mxGeometry relative="1" as="geometry" />
        </mxCell>
        <mxCell id="B5Kr1qF4tS2fgAwjhoCs-48" value="Auslieferung" style="html=1;align=center;verticalAlign=top;rounded=1;absoluteArcSize=1;arcSize=10;dashed=0;" vertex="1" parent="1">
          <mxGeometry x="580" y="330" width="140" height="40" as="geometry" />
        </mxCell>
        <mxCell id="B5Kr1qF4tS2fgAwjhoCs-51" value="Ja" style="text;html=1;align=center;verticalAlign=middle;resizable=0;points=[];autosize=1;strokeColor=none;fillColor=none;" vertex="1" parent="1">
          <mxGeometry x="270" y="230" width="40" height="30" as="geometry" />
        </mxCell>
        <mxCell id="B5Kr1qF4tS2fgAwjhoCs-70" style="edgeStyle=orthogonalEdgeStyle;rounded=0;orthogonalLoop=1;jettySize=auto;html=1;exitX=0.5;exitY=1;exitDx=0;exitDy=0;entryX=-0.145;entryY=0.324;entryDx=0;entryDy=0;entryPerimeter=0;startArrow=none;startFill=0;endArrow=classic;endFill=1;" edge="1" parent="1" source="B5Kr1qF4tS2fgAwjhoCs-52" target="B5Kr1qF4tS2fgAwjhoCs-39">
          <mxGeometry relative="1" as="geometry" />
        </mxCell>
        <mxCell id="B5Kr1qF4tS2fgAwjhoCs-52" value="&lt;div&gt;Reederei nimmt&lt;/div&gt;&lt;div&gt;Auftrag an&lt;br&gt;&lt;/div&gt;" style="html=1;align=center;verticalAlign=top;rounded=1;absoluteArcSize=1;arcSize=10;dashed=0;" vertex="1" parent="1">
          <mxGeometry x="450" y="200" width="140" height="40" as="geometry" />
        </mxCell>
        <mxCell id="B5Kr1qF4tS2fgAwjhoCs-57" style="edgeStyle=orthogonalEdgeStyle;rounded=0;orthogonalLoop=1;jettySize=auto;html=1;exitX=0;exitY=0.5;exitDx=0;exitDy=0;endArrow=none;endFill=0;startArrow=classic;startFill=1;" edge="1" parent="1" source="B5Kr1qF4tS2fgAwjhoCs-55">
          <mxGeometry relative="1" as="geometry">
            <mxPoint x="103" y="430" as="targetPoint" />
          </mxGeometry>
        </mxCell>
        <mxCell id="B5Kr1qF4tS2fgAwjhoCs-58" style="edgeStyle=orthogonalEdgeStyle;rounded=0;orthogonalLoop=1;jettySize=auto;html=1;exitX=1;exitY=0.5;exitDx=0;exitDy=0;entryX=0;entryY=0.5;entryDx=0;entryDy=0;startArrow=none;startFill=0;endArrow=classic;endFill=1;" edge="1" parent="1" source="B5Kr1qF4tS2fgAwjhoCs-55" target="B5Kr1qF4tS2fgAwjhoCs-56">
          <mxGeometry relative="1" as="geometry" />
        </mxCell>
        <mxCell id="B5Kr1qF4tS2fgAwjhoCs-55" value="&lt;div&gt;Teilrechnung&lt;/div&gt;&lt;div&gt;erstellen&lt;br&gt;&lt;/div&gt;" style="html=1;align=center;verticalAlign=top;rounded=1;absoluteArcSize=1;arcSize=10;dashed=0;" vertex="1" parent="1">
          <mxGeometry x="180" y="410" width="140" height="40" as="geometry" />
        </mxCell>
        <mxCell id="B5Kr1qF4tS2fgAwjhoCs-60" style="edgeStyle=orthogonalEdgeStyle;rounded=0;orthogonalLoop=1;jettySize=auto;html=1;exitX=1;exitY=0.5;exitDx=0;exitDy=0;entryX=0;entryY=0.5;entryDx=0;entryDy=0;startArrow=none;startFill=0;endArrow=classic;endFill=1;" edge="1" parent="1" source="B5Kr1qF4tS2fgAwjhoCs-56" target="B5Kr1qF4tS2fgAwjhoCs-59">
          <mxGeometry relative="1" as="geometry" />
        </mxCell>
        <mxCell id="B5Kr1qF4tS2fgAwjhoCs-56" value="&lt;div&gt;Zahlungseingang&lt;/div&gt;&lt;div&gt;prüfen&lt;br&gt;&lt;/div&gt;" style="html=1;align=center;verticalAlign=top;rounded=1;absoluteArcSize=1;arcSize=10;dashed=0;" vertex="1" parent="1">
          <mxGeometry x="380" y="410" width="140" height="40" as="geometry" />
        </mxCell>
        <mxCell id="B5Kr1qF4tS2fgAwjhoCs-61" style="edgeStyle=orthogonalEdgeStyle;rounded=0;orthogonalLoop=1;jettySize=auto;html=1;exitX=0.5;exitY=0;exitDx=0;exitDy=0;entryX=0.394;entryY=0.991;entryDx=0;entryDy=0;entryPerimeter=0;startArrow=none;startFill=0;endArrow=classic;endFill=1;" edge="1" parent="1" source="B5Kr1qF4tS2fgAwjhoCs-59" target="B5Kr1qF4tS2fgAwjhoCs-48">
          <mxGeometry relative="1" as="geometry" />
        </mxCell>
        <mxCell id="B5Kr1qF4tS2fgAwjhoCs-65" style="edgeStyle=orthogonalEdgeStyle;rounded=0;orthogonalLoop=1;jettySize=auto;html=1;exitX=0.5;exitY=1;exitDx=0;exitDy=0;startArrow=none;startFill=0;endArrow=classic;endFill=1;" edge="1" parent="1" source="B5Kr1qF4tS2fgAwjhoCs-59" target="B5Kr1qF4tS2fgAwjhoCs-64">
          <mxGeometry relative="1" as="geometry" />
        </mxCell>
        <mxCell id="B5Kr1qF4tS2fgAwjhoCs-59" value="" style="rhombus;" vertex="1" parent="1">
          <mxGeometry x="620" y="415" width="30" height="30" as="geometry" />
        </mxCell>
        <mxCell id="B5Kr1qF4tS2fgAwjhoCs-63" value="Zahlung eingeganen" style="text;html=1;align=center;verticalAlign=middle;resizable=0;points=[];autosize=1;strokeColor=none;fillColor=none;" vertex="1" parent="1">
          <mxGeometry x="500" y="385" width="140" height="30" as="geometry" />
        </mxCell>
        <mxCell id="B5Kr1qF4tS2fgAwjhoCs-66" style="edgeStyle=orthogonalEdgeStyle;rounded=0;orthogonalLoop=1;jettySize=auto;html=1;exitX=0;exitY=0.5;exitDx=0;exitDy=0;entryX=0.5;entryY=1;entryDx=0;entryDy=0;startArrow=none;startFill=0;endArrow=classic;endFill=1;" edge="1" parent="1" source="B5Kr1qF4tS2fgAwjhoCs-64" target="B5Kr1qF4tS2fgAwjhoCs-56">
          <mxGeometry relative="1" as="geometry" />
        </mxCell>
        <mxCell id="B5Kr1qF4tS2fgAwjhoCs-64" value="&lt;div&gt;Ware als&lt;br&gt;&lt;/div&gt;&lt;div&gt;Sicherheit festgehalten&lt;br&gt;&lt;/div&gt;" style="html=1;align=center;verticalAlign=top;rounded=1;absoluteArcSize=1;arcSize=10;dashed=0;" vertex="1" parent="1">
          <mxGeometry x="565" y="480" width="140" height="40" as="geometry" />
        </mxCell>
        <mxCell id="B5Kr1qF4tS2fgAwjhoCs-67" value="" style="ellipse;html=1;shape=endState;fillColor=strokeColor;" vertex="1" parent="1">
          <mxGeometry x="780" y="335" width="30" height="30" as="geometry" />
        </mxCell>
        <mxCell id="B5Kr1qF4tS2fgAwjhoCs-72" value="&lt;div&gt;Zahlung nicht&lt;/div&gt;&lt;div&gt;eingeganen&lt;/div&gt;" style="text;html=1;align=center;verticalAlign=middle;resizable=0;points=[];autosize=1;strokeColor=none;fillColor=none;" vertex="1" parent="1">
          <mxGeometry x="530" y="435" width="100" height="40" as="geometry" />
        </mxCell>
        <mxCell id="B5Kr1qF4tS2fgAwjhoCs-75" style="edgeStyle=orthogonalEdgeStyle;rounded=0;orthogonalLoop=1;jettySize=auto;html=1;exitX=1;exitY=0.5;exitDx=0;exitDy=0;entryX=0;entryY=0.5;entryDx=0;entryDy=0;startArrow=none;startFill=0;endArrow=classic;endFill=1;" edge="1" parent="1" source="B5Kr1qF4tS2fgAwjhoCs-73" target="B5Kr1qF4tS2fgAwjhoCs-40">
          <mxGeometry relative="1" as="geometry" />
        </mxCell>
        <mxCell id="B5Kr1qF4tS2fgAwjhoCs-77" style="edgeStyle=orthogonalEdgeStyle;rounded=0;orthogonalLoop=1;jettySize=auto;html=1;exitX=0;exitY=0.5;exitDx=0;exitDy=0;entryX=0;entryY=0.1;entryDx=0;entryDy=0;entryPerimeter=0;startArrow=classic;startFill=1;endArrow=none;endFill=0;" edge="1" parent="1" source="B5Kr1qF4tS2fgAwjhoCs-73" target="B5Kr1qF4tS2fgAwjhoCs-39">
          <mxGeometry relative="1" as="geometry" />
        </mxCell>
        <mxCell id="B5Kr1qF4tS2fgAwjhoCs-73" value="" style="rhombus;" vertex="1" parent="1">
          <mxGeometry x="130" y="335" width="30" height="30" as="geometry" />
        </mxCell>
        <mxCell id="B5Kr1qF4tS2fgAwjhoCs-78" value="&lt;div&gt;Bonität&lt;/div&gt;&lt;div&gt;vorhanden&lt;br&gt;&lt;/div&gt;" style="text;html=1;align=center;verticalAlign=middle;resizable=0;points=[];autosize=1;strokeColor=none;fillColor=none;" vertex="1" parent="1">
          <mxGeometry x="450" y="150" width="80" height="40" as="geometry" />
        </mxCell>
      </root>
    </mxGraphModel>
  </diagram>
</mxfile>
